<?xml version="1.0" encoding="utf-8"?><svg version="1.1" id="Layer_1" xmlns="http://www.w3.org/2000/svg" xmlns:xlink="http://www.w3.org/1999/xlink" x="0px" y="0px" width="0.6in" height="0.6in" viewBox="0 0 110.5 122.88" style="enable-background:new 0 0 110.5 122.88" xml:space="preserve"><style type="text/css"><![CDATA[
.st0{fill-rule:evenodd;clip-rule:evenodd;fill:#F6C32E;}
.st1{fill:#888888;}
]]></style><g><path class="st1" d="M87.34,13.47c2.49,1.78,4.82,3.75,6.97,5.91c10,10,16.18,23.81,16.18,39.07s-6.18,29.07-16.18,39.07 S70.5,113.7,55.25,113.7c-6.99,0-13.67-1.3-19.83-3.66l8.37-9.24c3.65,0.99,7.49,1.51,11.46,1.51c12.11,0,23.08-4.91,31.01-12.85 c7.94-7.94,12.84-18.9,12.84-31.01c0-12.11-4.91-23.08-12.84-31.01c-1.66-1.66-3.45-3.18-5.35-4.56L87.34,13.47L87.34,13.47z M18.18,99.42c-0.68-0.62-1.35-1.25-2-1.9C6.18,87.52,0,73.71,0,58.45s6.18-29.07,16.18-39.07c7.86-7.86,18.07-13.36,29.49-15.35 l-7.35,13.95c-5.31,2.22-10.09,5.46-14.09,9.46c-7.94,7.94-12.85,18.9-12.85,31.01c0,11.82,4.67,22.54,12.27,30.43L18.18,99.42 L18.18,99.42z"/>
<polygon class="st0" points="88.95,0 56.79,0.43 25.81,59.24 46.91,59.46 13.94,122.88 88.31,41.56 60.53,41.56 88.95,0"/></g></svg>