<svg width="3.239431in" height="0.65in" viewBox="0 0 613 123" xmlns="http://www.w3.org/2000/svg">
<g id="lightning" fill-rule="evenodd" fill="#BB1010">
<path class="st1" d="M87.34,13.47c2.49,1.78,4.82,3.75,6.97,5.91c10,10,16.18,23.81,16.18,39.07s-6.18,29.07-16.18,39.07 S70.5,113.7,55.25,113.7c-6.99,0-13.67-1.3-19.83-3.66l8.37-9.24c3.65,0.99,7.49,1.51,11.46,1.51c12.11,0,23.08-4.91,31.01-12.85 c7.94-7.94,12.84-18.9,12.84-31.01c0-12.11-4.91-23.08-12.84-31.01c-1.66-1.66-3.45-3.18-5.35-4.56L87.34,13.47L87.34,13.47z M18.18,99.42c-0.68-0.62-1.35-1.25-2-1.9C6.18,87.52,0,73.71,0,58.45s6.18-29.07,16.18-39.07c7.86-7.86,18.07-13.36,29.49-15.35 l-7.35,13.95c-5.31,2.22-10.09,5.46-14.09,9.46c-7.94,7.94-12.85,18.9-12.85,31.01c0,11.82,4.67,22.54,12.27,30.43L18.18,99.42 L18.18,99.42z"/></g>
<g id="circle" fill-rule="evenodd" fill="#FFC32E">
<polygon class="st0" points="88.95,0 56.79,0.43 25.81,59.24 46.91,59.46 13.94,122.88 88.31,41.56 60.53,41.56 88.95,0"/></g>
<g id="rapidobj" transform="translate(140,5)" fill-rule="evenodd" fill="#FFFFFF">
<path d="M 76.08 50.88 L 91.68 50.88 L 91.8 49.8 Q 92.16 48.12 92.16 46.32 A 13.562 13.562 0 0 0 91.828 43.222 Q 91.142 40.299 89.04 38.52 A 10.832 10.832 0 0 0 84.322 36.236 A 15.762 15.762 0 0 0 80.88 35.88 Q 75.6 35.88 71.16 38.46 Q 66.72 41.04 64.92 46.08 L 52.32 46.08 Q 54.12 39.6 58.56 34.98 Q 63 30.36 69.24 27.9 A 35.931 35.931 0 0 1 82.339 25.441 A 40.653 40.653 0 0 1 82.56 25.44 A 38.399 38.399 0 0 1 88.881 25.927 Q 92.281 26.495 94.992 27.728 A 17.563 17.563 0 0 1 99.24 30.42 A 16.291 16.291 0 0 1 104.714 40.519 A 23.786 23.786 0 0 1 105 44.28 Q 105 45.6 104.94 46.98 A 13.951 13.951 0 0 1 104.607 49.436 A 15.674 15.674 0 0 1 104.52 49.8 L 98.16 86.4 L 86.76 86.4 L 87.72 76.44 Q 84.24 81.36 78.9 84.6 Q 73.56 87.84 65.88 87.84 A 34.491 34.491 0 0 1 60.642 87.47 Q 54.501 86.524 51.18 83.16 A 15.656 15.656 0 0 1 47.265 76.788 A 15.967 15.967 0 0 1 46.56 72 Q 46.56 62.68 53.828 57.127 A 23.334 23.334 0 0 1 54.66 56.52 A 29.356 29.356 0 0 1 63.981 52.313 Q 69.368 50.88 76.08 50.88 Z M 275.52 36 L 281.88 0 L 294.6 0 L 279.24 86.4 L 267.84 86.4 L 268.2 77.16 A 32.966 32.966 0 0 1 262.564 82.482 A 40.441 40.441 0 0 1 259.44 84.6 A 20.916 20.916 0 0 1 253.085 87.129 Q 249.953 87.84 246.24 87.84 Q 238.68 87.84 233.28 84.3 Q 227.88 80.76 225 74.82 A 28.925 28.925 0 0 1 222.258 64.697 A 35.071 35.071 0 0 1 222.12 61.56 A 41.379 41.379 0 0 1 223.466 50.824 A 34.91 34.91 0 0 1 226.62 42.96 Q 231.12 34.8 238.8 30.12 Q 246.48 25.44 255.96 25.44 A 31.871 31.871 0 0 1 261.14 25.837 Q 263.956 26.301 266.261 27.309 A 16.909 16.909 0 0 1 268.32 28.38 A 19.833 19.833 0 0 1 273.561 32.957 A 18.356 18.356 0 0 1 275.52 36 Z M 121.2 112.8 L 108.48 112.8 L 123.6 26.88 L 135.12 26.88 L 134.76 36.12 Q 138.36 31.56 143.64 28.5 A 21.802 21.802 0 0 1 150.133 26.069 Q 152.84 25.499 155.952 25.446 A 37.793 37.793 0 0 1 156.6 25.44 A 27.689 27.689 0 0 1 163.242 26.204 A 21.823 21.823 0 0 1 169.5 28.8 Q 174.96 32.16 177.96 37.98 A 27.181 27.181 0 0 1 180.855 48.349 A 32.819 32.819 0 0 1 180.96 51 A 41.422 41.422 0 0 1 179.741 61.187 A 36.763 36.763 0 0 1 178.38 65.46 Q 175.8 72.12 171.12 77.16 Q 166.44 82.2 160.14 85.02 Q 153.84 87.84 146.52 87.84 A 24.323 24.323 0 0 1 140.316 87.08 A 19.677 19.677 0 0 1 134.64 84.6 A 26.256 26.256 0 0 1 131.142 81.941 Q 128.756 79.767 127.44 77.28 L 121.2 112.8 Z M 381.84 77.28 L 378.84 86.4 L 367.44 86.4 L 382.68 0 L 395.4 0 L 389.16 35.28 A 32.694 32.694 0 0 1 394.904 30.318 A 39.751 39.751 0 0 1 398.04 28.38 Q 403.173 25.522 410.461 25.443 A 38.398 38.398 0 0 1 410.88 25.44 A 28.549 28.549 0 0 1 417.3 26.13 A 21.857 21.857 0 0 1 423.9 28.8 Q 429.36 32.16 432.3 37.98 A 27.575 27.575 0 0 1 435.128 48.241 A 33.416 33.416 0 0 1 435.24 51 A 41.422 41.422 0 0 1 434.021 61.187 A 36.763 36.763 0 0 1 432.66 65.46 Q 430.08 72.12 425.4 77.16 Q 420.72 82.2 414.48 85.02 A 32.239 32.239 0 0 1 402.057 87.823 A 37.363 37.363 0 0 1 400.92 87.84 A 25.05 25.05 0 0 1 394.823 87.13 A 19.66 19.66 0 0 1 388.92 84.6 Q 383.88 81.36 381.84 77.28 Z M 433.08 112.8 L 426.48 112.8 L 428.4 102 L 433.08 102 A 16.192 16.192 0 0 0 435.389 101.847 Q 437.903 101.484 439.38 100.26 A 6.541 6.541 0 0 0 440.906 98.376 Q 441.4 97.489 441.747 96.355 A 16.072 16.072 0 0 0 442.2 94.44 L 454.08 26.88 L 466.8 26.88 L 454.92 94.56 A 32.27 32.27 0 0 1 453.483 100.102 Q 452.386 103.115 450.73 105.356 A 15.518 15.518 0 0 1 447.6 108.54 Q 442.111 112.687 433.552 112.797 A 36.486 36.486 0 0 1 433.08 112.8 Z M 12.72 86.4 L 0 86.4 L 10.44 26.88 L 21.96 26.88 L 21.12 37.56 Q 25.2 32.04 31.44 28.74 A 28.645 28.645 0 0 1 42.551 25.561 A 34.897 34.897 0 0 1 45.48 25.44 L 43.08 38.76 L 39.6 38.76 A 30.057 30.057 0 0 0 33.328 39.393 A 25.602 25.602 0 0 0 29.88 40.38 Q 25.44 42 22.32 45.84 Q 19.666 49.107 18.488 54.37 A 33.578 33.578 0 0 0 18.12 56.28 L 12.72 86.4 Z M 316.219 86.875 A 28.454 28.454 0 0 0 323.76 87.84 Q 331.32 87.84 337.74 85.08 Q 344.16 82.32 349.02 77.34 Q 353.88 72.36 356.64 65.7 Q 359.4 59.04 359.4 51.36 A 31.862 31.862 0 0 0 359.134 47.188 A 24.996 24.996 0 0 0 356.04 37.86 Q 352.68 32.04 346.86 28.74 Q 341.04 25.44 333.36 25.44 A 40.361 40.361 0 0 0 332.204 25.457 A 35.067 35.067 0 0 0 319.5 28.14 Q 313.08 30.84 308.22 35.76 Q 303.36 40.68 300.66 47.28 A 35.095 35.095 0 0 0 299.463 50.702 A 38.427 38.427 0 0 0 297.96 61.56 A 32.392 32.392 0 0 0 298.118 64.79 A 26.304 26.304 0 0 0 301.26 75.06 Q 304.56 81 310.38 84.42 A 23.957 23.957 0 0 0 316.219 86.875 Z M 202.56 86.4 L 189.84 86.4 L 200.28 26.88 L 213 26.88 L 202.56 86.4 Z M 146.4 76.8 Q 152.64 76.8 157.44 73.68 A 22.246 22.246 0 0 0 164.971 65.387 A 26.067 26.067 0 0 0 165.06 65.22 A 24.481 24.481 0 0 0 167.745 56.034 A 30.03 30.03 0 0 0 167.88 53.16 A 20.329 20.329 0 0 0 167.132 47.523 A 16.083 16.083 0 0 0 163.68 41.22 A 13.82 13.82 0 0 0 154.771 36.634 A 19.632 19.632 0 0 0 152.28 36.48 Q 146.16 36.48 141.24 39.72 Q 136.32 42.96 133.5 48.42 A 25.425 25.425 0 0 0 130.815 57.794 A 31.146 31.146 0 0 0 130.68 60.72 A 18.938 18.938 0 0 0 131.421 66.141 A 14.905 14.905 0 0 0 135 72.3 A 14.413 14.413 0 0 0 143.842 76.642 A 20.053 20.053 0 0 0 146.4 76.8 Z M 400.8 76.8 A 20.511 20.511 0 0 0 408.537 75.359 A 19.438 19.438 0 0 0 411.78 73.68 Q 416.64 70.56 419.4 65.22 A 24.818 24.818 0 0 0 422.008 56.235 A 30.544 30.544 0 0 0 422.16 53.16 A 20.329 20.329 0 0 0 421.412 47.523 A 16.083 16.083 0 0 0 417.96 41.22 Q 413.76 36.48 406.68 36.48 A 20.492 20.492 0 0 0 398.933 37.926 A 19.411 19.411 0 0 0 395.52 39.72 Q 390.6 42.96 387.84 48.42 A 25.78 25.78 0 0 0 385.232 57.59 A 31.681 31.681 0 0 0 385.08 60.72 A 19.251 19.251 0 0 0 385.783 66.047 A 14.963 14.963 0 0 0 389.34 72.3 A 14.121 14.121 0 0 0 397.586 76.553 A 20.088 20.088 0 0 0 400.8 76.8 Z M 250.56 76.8 Q 256.8 76.8 261.72 73.44 Q 266.64 70.08 269.46 64.5 A 26.55 26.55 0 0 0 272.255 53.451 A 31.29 31.29 0 0 0 272.28 52.2 A 19.673 19.673 0 0 0 271.673 47.184 A 14.327 14.327 0 0 0 268.14 40.8 A 13.721 13.721 0 0 0 260.474 36.785 A 19.819 19.819 0 0 0 256.92 36.48 A 21.27 21.27 0 0 0 249.997 37.58 A 19.195 19.195 0 0 0 245.82 39.6 Q 240.96 42.72 238.14 48.06 A 24.481 24.481 0 0 0 235.455 57.247 A 30.03 30.03 0 0 0 235.32 60.12 A 20.285 20.285 0 0 0 236.143 66.021 A 16.525 16.525 0 0 0 239.4 72 A 13.358 13.358 0 0 0 248.421 76.683 A 18.975 18.975 0 0 0 250.56 76.8 Z M 325.44 76.92 Q 331.32 76.92 336.06 73.62 A 22.685 22.685 0 0 0 342.979 65.85 A 27.063 27.063 0 0 0 343.56 64.74 Q 346.32 59.16 346.32 52.08 A 20.878 20.878 0 0 0 345.817 47.355 Q 344.991 43.799 342.81 41.293 A 13.036 13.036 0 0 0 342.06 40.5 Q 337.8 36.36 331.92 36.36 Q 326.04 36.36 321.3 39.66 A 22.685 22.685 0 0 0 314.381 47.431 A 27.063 27.063 0 0 0 313.8 48.54 Q 311.04 54.12 311.04 61.2 A 20.878 20.878 0 0 0 311.543 65.926 Q 312.369 69.482 314.55 71.988 A 13.036 13.036 0 0 0 315.3 72.78 Q 319.56 76.92 325.44 76.92 Z M 90 59.52 L 75.84 59.52 A 29.193 29.193 0 0 0 71.341 59.846 Q 68.964 60.217 67.029 61.013 A 13.929 13.929 0 0 0 64.44 62.4 A 10.176 10.176 0 0 0 61.8 64.962 Q 60.24 67.202 60.24 70.2 A 7.782 7.782 0 0 0 60.566 72.517 A 5.904 5.904 0 0 0 62.88 75.66 A 9.171 9.171 0 0 0 65.58 76.932 Q 66.815 77.298 68.298 77.436 A 20.479 20.479 0 0 0 70.2 77.52 A 17.686 17.686 0 0 0 76.371 76.463 A 16.402 16.402 0 0 0 79.26 75.06 Q 83.28 72.6 86.04 68.52 Q 88.8 64.44 90 59.52 Z M 207.091 15.404 A 9.306 9.306 0 0 0 210 15.84 A 10.668 10.668 0 0 0 210.88 15.805 A 7.957 7.957 0 0 0 215.94 13.56 A 7.663 7.663 0 0 0 217.622 11.18 A 7.926 7.926 0 0 0 218.28 7.92 Q 218.28 4.56 215.94 2.28 A 7.745 7.745 0 0 0 212.909 0.437 A 9.306 9.306 0 0 0 210 0 A 10.668 10.668 0 0 0 209.12 0.036 A 7.957 7.957 0 0 0 204.06 2.28 A 7.663 7.663 0 0 0 202.378 4.661 A 7.926 7.926 0 0 0 201.72 7.92 Q 201.72 11.28 204.06 13.56 A 7.745 7.745 0 0 0 207.091 15.404 Z M 461.131 15.404 A 9.306 9.306 0 0 0 464.04 15.84 A 10.384 10.384 0 0 0 464.364 15.835 A 7.947 7.947 0 0 0 469.86 13.56 A 7.663 7.663 0 0 0 471.542 11.18 A 7.926 7.926 0 0 0 472.2 7.92 Q 472.2 4.56 469.86 2.28 A 7.815 7.815 0 0 0 467.121 0.527 A 8.738 8.738 0 0 0 464.04 0 A 10.668 10.668 0 0 0 463.16 0.036 A 7.957 7.957 0 0 0 458.1 2.28 A 7.663 7.663 0 0 0 456.418 4.661 A 7.926 7.926 0 0 0 455.76 7.92 Q 455.76 11.28 458.1 13.56 A 7.745 7.745 0 0 0 461.131 15.404 Z"/></g></svg>
